<?xml version="1.0" encoding="UTF-8"?>
<svg width="200" height="40" viewBox="0 0 200 40" fill="none" xmlns="http://www.w3.org/2000/svg">
  <g transform="translate(8, 4) scale(0.8)">
    <!-- Основной круг -->
    <circle cx="20" cy="20" r="20" fill="#1976D2"/>
    
    <!-- Подсолнух -->
    <path d="M15 12C15 12 16 10 18 10C20 10 21 12 21 12" fill="#FFC107"/>
    <circle cx="18" cy="11" r="2" fill="#795548"/>
    
    <!-- Фигуры людей -->
    <path d="M12 22C12 22 14 18 20 18C26 18 28 22 28 22" fill="#1565C0"/>
    <path d="M16 24C16 24 18 20 20 20C22 20 24 24 24 24" fill="#1565C0"/>
    <circle cx="20" cy="16" r="2" fill="#1565C0"/>
    <circle cx="16" cy="18" r="2" fill="#1565C0"/>
    <circle cx="24" cy="18" r="2" fill="#1565C0"/>
    
    <!-- Красная дуга -->
    <path d="M8 20C8 26.6274 13.3726 32 20 32C26.6274 32 32 26.6274 32 20" stroke="#FF5722" stroke-width="3"/>
  </g>
  
  <!-- Текст "UniServ" -->
  <text x="50" y="26" font-family="Arial, sans-serif" font-size="22" font-weight="bold" fill="#FFFFFF">
    UniServ
  </text>
</svg> 